<svg xmlns="http://www.w3.org/2000/svg" viewBox="0 0 120 120">
    <defs>
        <linearGradient id="aiGradient" x1="0%" y1="0%" x2="100%" y2="100%">
            <stop offset="0%" stop-color="#00C9FF" />
            <stop offset="100%" stop-color="#92FE9D" />
        </linearGradient>
    </defs>
    <g stroke="url(#aiGradient)" stroke-width="2.5" fill="none" stroke-linecap="round" stroke-linejoin="round">
        <path d="M40 70 L30 50 L50 35 L75 40 L90 60 L70 80 L40 70 Z" />
        <path d="M50 35 L60 20 L85 25 L75 40" />
        <path d="M30 50 L15 55 L20 75 L40 70" />
        <path d="M90 60 L105 65 L95 85 L70 80" />
        <path d="M50 35 L70 80" />
        <path d="M30 50 L75 40" />
        <path d="M40 70 L90 60" />
    </g>
    <g fill="url(#aiGradient)">
        <circle cx="60" cy="20" r="4" />
        <circle cx="85" cy="25" r="4" />
        <circle cx="50" cy="35" r="5" />
        <circle cx="75" cy="40" r="5" />
        <circle cx="30" cy="50" r="5" />
        <circle cx="15" cy="55" r="4" />
        <circle cx="90" cy="60" r="5" />
        <circle cx="105" cy="65" r="4" />
        <circle cx="40" cy="70" r="5" />
        <circle cx="20" cy="75" r="4" />
        <circle cx="70" cy="80" r="5" />
        <circle cx="95" cy="85" r="4" />
    </g>
</svg>
